# xmcd
#
# Track frame offsets: 
#        150
#        15200
#        30440
#        44695
#        58346
#        76087
#        91247
#        102177
#        116949
#        131860
#        146205
#
# Disc length: 2116 seconds
#
# Revision: 0
# Processed by: cddbd v1.5.2PL0 Copyright (c) Steve Scherf et al.
# Submitted via: ExactAudioCopy v0.99pb5
#
DISCID=9308420b
DTITLE=Adam and The King Bee - Pow Wow
DYEAR=2012
DGENRE=Blues
TTITLE0=Peace Offering 
TTITLE1=Turn Right, Go Left
TTITLE2=Take Your Time
TTITLE3=Original Sin
TTITLE4=After All
TTITLE5=She Could Be Lying
TTITLE6=You Got Me Right
TTITLE7=Undone By Love
TTITLE8=Hold The Bone
TTITLE9=One More Then Bed
TTITLE10=Kiss Me Four
EXTD=
EXTT0=
EXTT1=
EXTT2=
EXTT3=
EXTT4=
EXTT5=
EXTT6=
EXTT7=
EXTT8=
EXTT9=
EXTT10=
PLAYORDER=
